<?xml version="1.0" standalone="no"?>
<!DOCTYPE svg PUBLIC "-//W3C//DTD SVG 20010904//EN"
 "http://www.w3.org/TR/2001/REC-SVG-20010904/DTD/svg10.dtd">
<svg version="1.0" xmlns="http://www.w3.org/2000/svg"
 width="128.000000pt" height="128.000000pt" viewBox="0 0 128.000000 128.000000"
 preserveAspectRatio="xMidYMid meet">

<g transform="translate(0.000000,128.000000) scale(0.100000,-0.100000)"
fill="#000000" stroke="none">
<path d="M1046 1140 c-25 -23 -46 -49 -46 -56 0 -21 34 -17 55 6 10 11 21 20
25 20 9 0 36 -127 50 -233 13 -100 13 -263 0 -364 -12 -94 -41 -243 -48 -243
-2 0 -30 23 -61 52 -73 67 -164 134 -223 164 l-48 24 0 180 0 179 63 36 c89
52 167 113 167 130 0 24 -17 18 -98 -39 -137 -95 -139 -96 -317 -96 -164 0
-190 -6 -205 -44 -5 -14 -22 -27 -47 -34 -51 -15 -63 -42 -63 -136 0 -87 22
-126 70 -126 23 0 40 -15 40 -36 0 -2 -80 -5 -177 -6 -150 -3 -178 -5 -178
-18 0 -11 15 -16 62 -18 l63 -3 0 -169 0 -169 -62 -3 c-48 -2 -63 -7 -63 -18
0 -12 22 -15 123 -18 117 -2 122 -2 122 18 0 17 -6 20 -40 20 l-40 0 0 170 0
170 95 0 95 0 0 -170 0 -170 -30 0 c-23 0 -30 -4 -30 -20 0 -19 7 -20 205 -20
205 0 206 0 230 25 26 25 31 50 16 74 -5 7 -4 25 3 42 8 22 8 34 -2 49 -9 15
-9 25 0 45 8 17 8 32 1 48 -9 19 -3 52 14 76 6 9 175 -114 245 -178 42 -39 81
-71 87 -71 6 0 13 12 17 28 3 15 12 52 19 82 8 30 19 94 26 142 10 74 15 88
34 96 13 6 34 26 48 44 52 70 42 146 -28 204 -38 32 -44 43 -50 88 -11 90 -47
255 -60 272 -11 15 -17 13 -59 -26z m-336 -450 l0 -170 -148 0 c-102 0 -152 4
-160 12 -13 13 -18 281 -6 312 5 14 29 16 160 16 l154 0 0 -170z m-360 0 c0
-103 -3 -110 -41 -90 -16 9 -19 22 -19 88 0 81 9 102 42 102 16 0 18 -10 18
-100z m886 14 c5 -40 -23 -104 -46 -104 -6 0 -10 38 -10 97 l0 98 26 -26 c16
-16 27 -41 30 -65z m-636 -244 c8 -14 8 -26 0 -40 -9 -16 -21 -20 -63 -20 -64
0 -70 -5 -82 -54 -6 -21 -20 -45 -32 -54 l-23 -14 0 101 0 101 95 0 c84 0 95
-2 105 -20z m115 -5 c0 -16 -8 -21 -37 -23 -35 -3 -38 -1 -38 23 0 24 3 26 38
23 29 -2 37 -7 37 -23z m-1 -88 c15 -24 -7 -37 -66 -37 -56 0 -70 16 -38 42
29 24 88 21 104 -5z m-157 -33 c9 -20 9 -30 0 -45 -9 -14 -9 -26 -1 -48 7 -17
8 -35 3 -42 -5 -8 -9 -24 -9 -36 0 -18 -6 -23 -25 -23 l-25 0 0 110 c0 107 1
110 23 110 14 0 26 -9 34 -26z m160 -60 c14 -37 -72 -60 -112 -30 -11 8 -16
19 -12 30 9 23 115 23 124 0z m-257 -69 l0 -65 -30 0 c-29 0 -30 1 -30 49 0
49 7 58 58 80 1 1 2 -28 2 -64z m250 -20 c25 -30 4 -46 -57 -43 -47 2 -58 6
-61 22 -2 10 2 22 10 27 22 14 94 10 108 -6z"/>
<path d="M432 793 c3 -15 16 -18 82 -21 75 -3 113 8 100 29 -3 5 -46 9 -95 9
-81 0 -90 -2 -87 -17z"/>
<path d="M432 723 c3 -15 16 -18 82 -21 75 -3 113 8 100 29 -3 5 -46 9 -95 9
-81 0 -90 -2 -87 -17z"/>
<path d="M435 660 c-14 -23 13 -31 96 -28 67 2 84 6 84 18 0 12 -18 16 -87 18
-56 2 -89 -1 -93 -8z"/>
<path d="M222 444 c-26 -18 -30 -65 -7 -84 22 -18 66 -15 82 6 37 51 -23 115
-75 78z m43 -44 c0 -7 -6 -15 -12 -17 -8 -3 -13 4 -13 17 0 13 5 20 13 18 6
-3 12 -11 12 -18z"/>
</g>
</svg>
