<?xml version="1.0" standalone="no"?>
<!DOCTYPE svg PUBLIC "-//W3C//DTD SVG 20010904//EN"
 "http://www.w3.org/TR/2001/REC-SVG-20010904/DTD/svg10.dtd">
<svg version="1.0" xmlns="http://www.w3.org/2000/svg"
 width="512.000000pt" height="512.000000pt" viewBox="0 0 512.000000 512.000000"
 preserveAspectRatio="xMidYMid meet">

<g transform="translate(0.000000,512.000000) scale(0.100000,-0.100000)"
fill="#000000" stroke="none">
<path d="M190 5111 c-101 -31 -175 -118 -187 -219 -14 -126 70 -243 199 -276
l53 -13 5 -1104 5 -1104 28 -47 c31 -53 79 -94 134 -114 31 -10 195 -13 831
-14 l792 0 0 -90 0 -89 -57 -27 c-214 -102 -266 -382 -101 -547 135 -135 353
-133 484 5 66 68 87 119 92 220 4 80 2 92 -25 150 -17 35 -48 81 -71 103 -41
39 -116 85 -139 85 -10 0 -13 25 -13 95 l0 95 296 0 296 0 48 -35 c44 -32 48
-38 54 -90 13 -109 81 -262 162 -362 23 -27 34 -52 34 -73 0 -98 -83 -283
-164 -363 -70 -71 -125 -96 -228 -107 -238 -24 -426 -190 -483 -425 -14 -58
-16 -112 -13 -325 3 -226 5 -259 22 -290 30 -58 87 -109 143 -130 53 -20 80
-20 1282 -20 1388 0 1286 -6 1371 80 75 74 80 100 80 404 0 144 -4 287 -10
319 -27 170 -149 297 -345 360 -27 9 -92 21 -144 27 -75 8 -106 17 -148 41
-116 66 -224 249 -240 406 -5 50 -4 54 42 115 68 89 123 209 144 313 17 85 19
88 62 120 133 96 216 262 207 414 -9 146 -76 239 -188 263 l-57 11 -6 106
c-12 197 -58 304 -181 426 -76 75 -116 102 -208 139 l-38 15 0 525 0 526 28 0
c39 0 122 42 159 81 121 128 70 347 -94 409 -53 20 -78 20 -1971 19 -1054 0
-1928 -4 -1942 -8z m3860 -176 c50 -26 57 -94 14 -132 l-25 -23 -1905 0 -1906
0 -29 29 c-38 38 -38 74 0 112 l29 29 1897 0 c1676 0 1899 -2 1925 -15z m-210
-840 l0 -515 -215 0 -215 0 0 318 0 319 -26 24 c-25 23 -31 24 -202 27 -111 2
-191 -1 -214 -8 -71 -21 -68 8 -68 -728 l0 -658 -59 -12 c-32 -7 -70 -22 -85
-33 l-26 -20 0 526 c0 358 -3 533 -11 547 -21 39 -68 48 -244 48 -176 0 -223
-9 -244 -48 -17 -31 -15 -1261 2 -1283 26 -34 55 -39 224 -39 92 0 173 -4 178
-8 6 -4 17 -34 26 -67 9 -33 19 -68 24 -77 7 -17 -49 -18 -1097 -18 l-1105 0
-27 25 -26 24 0 1086 0 1085 1705 0 1705 0 0 -515z m-600 -283 l0 -287 -52
-32 c-29 -17 -64 -43 -77 -57 -14 -14 -28 -26 -33 -26 -10 0 -11 674 -1 683 3
4 42 7 85 7 l78 0 0 -288z m-680 -572 l0 -510 -85 0 -85 0 0 510 0 510 85 0
85 0 0 -510z m1452 133 c37 -17 90 -53 117 -78 89 -83 125 -166 137 -312 l7
-83 -59 0 c-33 0 -76 4 -97 9 -93 22 -165 109 -187 228 -14 71 -42 103 -92
103 -23 0 -49 -19 -127 -94 -102 -97 -197 -160 -291 -192 -46 -16 -79 -19
-199 -16 -80 1 -147 4 -150 7 -2 3 0 41 6 86 23 174 137 312 302 364 36 11
101 14 306 12 l260 -2 67 -32z m-196 -428 c31 -66 101 -132 179 -171 66 -33
85 -37 172 -42 91 -5 99 -7 124 -33 31 -33 67 -37 124 -14 47 20 73 11 91 -31
23 -55 18 -122 -15 -189 -35 -72 -80 -122 -154 -169 -61 -39 -63 -43 -72 -131
-16 -148 -75 -274 -175 -375 -232 -231 -609 -232 -840 0 -101 100 -160 228
-175 376 -4 38 -12 77 -17 87 -5 9 -34 31 -65 49 -100 56 -173 174 -173 279 0
97 36 133 105 105 73 -31 124 -14 145 48 l11 35 142 -2 c109 -1 158 3 212 17
98 25 219 86 290 145 33 27 63 50 67 50 4 1 15 -15 24 -34z m-1589 -1098 c72
-49 96 -160 50 -228 -35 -53 -82 -79 -140 -79 -115 0 -196 101 -167 210 30
111 163 162 257 97z m1093 -308 c53 -33 162 -67 253 -79 141 -20 302 7 428 70
32 17 60 30 63 30 3 0 12 -26 21 -57 9 -32 30 -85 46 -117 16 -33 26 -63 22
-67 -4 -4 -82 -40 -173 -80 -91 -40 -175 -82 -188 -93 -13 -11 -37 -44 -53
-73 -28 -49 -33 -53 -68 -53 -36 0 -40 4 -82 68 l-44 67 -175 78 c-96 43 -179
82 -183 86 -5 5 2 30 16 57 13 27 32 74 41 104 10 30 19 61 21 68 6 17 15 15
55 -9z m-60 -443 c58 -26 108 -50 112 -54 6 -6 -13 -55 -72 -190 l-19 -42
-170 132 c-164 129 -169 133 -148 148 12 8 41 32 64 52 l43 37 43 -18 c23 -10
89 -40 147 -65z m1126 -17 c5 -8 -310 -259 -324 -259 -10 0 -108 218 -101 223
2 2 71 33 153 69 l150 66 58 -46 c33 -25 61 -49 64 -53z m-1405 -251 c291
-229 304 -238 339 -238 19 0 30 -7 38 -24 6 -13 24 -39 41 -58 l30 -34 -57
-153 -57 -152 -438 3 -439 3 -25 29 -24 29 3 251 3 252 33 66 c48 99 119 164
213 198 30 11 64 19 75 20 13 0 119 -77 265 -192z m1720 176 c128 -38 202
-100 232 -195 23 -70 25 -544 3 -588 -26 -50 -35 -51 -490 -51 l-423 0 -56
151 -57 152 31 35 c17 19 35 45 41 58 7 16 20 24 35 24 37 0 47 7 326 226 161
127 267 204 281 204 12 0 47 -7 77 -16z m-900 -167 c28 -21 39 -54 39 -112 0
-109 -21 -124 -173 -125 -115 0 -119 1 -142 26 -22 24 -25 36 -25 101 0 65 3
77 25 98 23 24 30 25 142 25 77 -1 124 -5 134 -13z m-9 -537 c27 -69 48 -126
48 -127 0 -2 -76 -3 -170 -3 -93 0 -170 2 -170 4 0 7 82 220 91 238 9 16 20
18 82 16 l72 -3 47 -125z"/>
<path d="M2011 4427 c-14 -6 -83 -100 -164 -222 -77 -115 -143 -214 -148 -220
-6 -5 -82 64 -197 178 -201 200 -216 209 -270 171 -30 -20 -292 -545 -292
-583 0 -33 31 -68 67 -77 54 -14 72 9 186 235 l109 214 182 -182 c176 -174
184 -181 222 -181 29 0 46 6 61 23 11 12 85 119 163 237 79 118 144 216 145
218 2 2 66 -29 144 -67 81 -41 153 -71 171 -71 34 0 375 167 402 196 38 43 23
109 -29 131 l-36 15 -169 -83 -168 -83 -167 82 c-93 45 -172 82 -178 82 -5 -1
-21 -6 -34 -13z"/>
<path d="M1562 3557 c-22 -23 -22 -25 -22 -479 0 -251 3 -464 6 -473 15 -38
55 -45 253 -45 186 0 190 0 218 24 l28 24 3 434 c2 238 0 448 -3 466 -3 17
-16 41 -27 52 -20 19 -36 20 -228 20 -203 0 -207 0 -228 -23z m318 -487 l0
-340 -85 0 -85 0 0 340 0 340 85 0 85 0 0 -340z"/>
<path d="M879 3384 l-24 -26 0 -375 0 -375 28 -24 c28 -24 31 -24 228 -24 197
0 200 0 224 24 13 13 26 39 30 57 3 19 5 188 3 376 l-3 341 -24 26 -24 26
-207 0 -207 0 -24 -26z m311 -399 l0 -255 -85 0 -85 0 0 255 0 255 85 0 85 0
0 -255z"/>
</g>
</svg>
